<mxfile host="app.diagrams.net" modified="2022-04-01T21:33:37.127Z" agent="5.0 (X11)" etag="nGOMCUiSLX7bB7HGV1eU" version="17.4.0" type="github">
  <diagram id="fhwDebqNWS-k2X6iACyG" name="Page-1">
    <mxGraphModel dx="920" dy="753" grid="1" gridSize="10" guides="1" tooltips="1" connect="1" arrows="1" fold="1" page="1" pageScale="1" pageWidth="850" pageHeight="1100" math="0" shadow="0">
      <root>
        <mxCell id="0" />
        <mxCell id="1" parent="0" />
        <mxCell id="-C6V215suekzGPEqEguK-1" value="&lt;font style=&quot;font-size: 20px&quot;&gt;Médicos&lt;/font&gt;" style="rounded=0;whiteSpace=wrap;html=1;" parent="1" vertex="1">
          <mxGeometry x="40" y="140" width="170" height="130" as="geometry" />
        </mxCell>
        <mxCell id="-C6V215suekzGPEqEguK-2" value="&lt;font style=&quot;font-size: 20px&quot;&gt;Pacientes&lt;/font&gt;" style="rounded=0;whiteSpace=wrap;html=1;" parent="1" vertex="1">
          <mxGeometry x="650" y="140" width="170" height="130" as="geometry" />
        </mxCell>
        <mxCell id="-C6V215suekzGPEqEguK-3" value="&lt;font style=&quot;font-size: 20px&quot;&gt;Especialidades&lt;/font&gt;" style="rounded=0;whiteSpace=wrap;html=1;" parent="1" vertex="1">
          <mxGeometry x="40" y="560" width="170" height="130" as="geometry" />
        </mxCell>
        <mxCell id="-C6V215suekzGPEqEguK-4" value="&lt;font style=&quot;font-size: 20px&quot;&gt;Quartos&lt;/font&gt;" style="rounded=0;whiteSpace=wrap;html=1;" parent="1" vertex="1">
          <mxGeometry x="650" y="560" width="170" height="130" as="geometry" />
        </mxCell>
        <mxCell id="-C6V215suekzGPEqEguK-7" style="edgeStyle=orthogonalEdgeStyle;rounded=0;orthogonalLoop=1;jettySize=auto;html=1;exitX=0.5;exitY=0;exitDx=0;exitDy=0;entryX=0.5;entryY=1;entryDx=0;entryDy=0;fontSize=18;endArrow=none;endFill=0;" parent="1" source="-C6V215suekzGPEqEguK-6" target="-C6V215suekzGPEqEguK-1" edge="1">
          <mxGeometry relative="1" as="geometry" />
        </mxCell>
        <mxCell id="-C6V215suekzGPEqEguK-8" style="edgeStyle=orthogonalEdgeStyle;rounded=0;orthogonalLoop=1;jettySize=auto;html=1;exitX=0.5;exitY=1;exitDx=0;exitDy=0;fontSize=18;endArrow=none;endFill=0;" parent="1" source="-C6V215suekzGPEqEguK-6" target="-C6V215suekzGPEqEguK-3" edge="1">
          <mxGeometry relative="1" as="geometry" />
        </mxCell>
        <mxCell id="-C6V215suekzGPEqEguK-6" value="&lt;font style=&quot;font-size: 18px&quot;&gt;Têm&lt;/font&gt;" style="rhombus;whiteSpace=wrap;html=1;fontSize=20;" parent="1" vertex="1">
          <mxGeometry x="10" y="370" width="80" height="80" as="geometry" />
        </mxCell>
        <mxCell id="-C6V215suekzGPEqEguK-11" style="edgeStyle=orthogonalEdgeStyle;rounded=0;orthogonalLoop=1;jettySize=auto;html=1;exitX=1;exitY=0.5;exitDx=0;exitDy=0;entryX=0;entryY=0.5;entryDx=0;entryDy=0;fontSize=18;endArrow=none;endFill=0;" parent="1" source="-C6V215suekzGPEqEguK-10" target="-C6V215suekzGPEqEguK-2" edge="1">
          <mxGeometry relative="1" as="geometry" />
        </mxCell>
        <mxCell id="-C6V215suekzGPEqEguK-12" style="edgeStyle=orthogonalEdgeStyle;rounded=0;orthogonalLoop=1;jettySize=auto;html=1;exitX=0;exitY=0.5;exitDx=0;exitDy=0;entryX=1;entryY=0.5;entryDx=0;entryDy=0;fontSize=18;endArrow=none;endFill=0;" parent="1" source="-C6V215suekzGPEqEguK-10" target="-C6V215suekzGPEqEguK-1" edge="1">
          <mxGeometry relative="1" as="geometry" />
        </mxCell>
        <mxCell id="-C6V215suekzGPEqEguK-10" value="&lt;font style=&quot;font-size: 18px&quot;&gt;Atendem&lt;/font&gt;" style="rhombus;whiteSpace=wrap;html=1;fontSize=20;" parent="1" vertex="1">
          <mxGeometry x="385" y="165" width="105" height="80" as="geometry" />
        </mxCell>
        <mxCell id="-C6V215suekzGPEqEguK-14" style="edgeStyle=orthogonalEdgeStyle;rounded=0;orthogonalLoop=1;jettySize=auto;html=1;exitX=0.5;exitY=0;exitDx=0;exitDy=0;entryX=0.576;entryY=1.031;entryDx=0;entryDy=0;entryPerimeter=0;fontSize=18;endArrow=none;endFill=0;" parent="1" source="-C6V215suekzGPEqEguK-13" target="-C6V215suekzGPEqEguK-2" edge="1">
          <mxGeometry relative="1" as="geometry" />
        </mxCell>
        <mxCell id="-C6V215suekzGPEqEguK-15" style="edgeStyle=orthogonalEdgeStyle;rounded=0;orthogonalLoop=1;jettySize=auto;html=1;exitX=0.5;exitY=1;exitDx=0;exitDy=0;entryX=0.576;entryY=0;entryDx=0;entryDy=0;entryPerimeter=0;fontSize=18;endArrow=none;endFill=0;" parent="1" source="-C6V215suekzGPEqEguK-13" target="-C6V215suekzGPEqEguK-4" edge="1">
          <mxGeometry relative="1" as="geometry" />
        </mxCell>
        <mxCell id="-C6V215suekzGPEqEguK-13" value="&lt;font style=&quot;font-size: 18px&quot;&gt;Possuem&lt;/font&gt;" style="rhombus;whiteSpace=wrap;html=1;fontSize=20;" parent="1" vertex="1">
          <mxGeometry x="695" y="370" width="105" height="80" as="geometry" />
        </mxCell>
        <mxCell id="-C6V215suekzGPEqEguK-17" style="edgeStyle=orthogonalEdgeStyle;rounded=0;orthogonalLoop=1;jettySize=auto;html=1;exitX=0;exitY=0.5;exitDx=0;exitDy=0;entryX=1;entryY=0.75;entryDx=0;entryDy=0;fontSize=18;endArrow=none;endFill=0;" parent="1" source="-C6V215suekzGPEqEguK-16" target="-C6V215suekzGPEqEguK-1" edge="1">
          <mxGeometry relative="1" as="geometry" />
        </mxCell>
        <mxCell id="-C6V215suekzGPEqEguK-18" style="edgeStyle=orthogonalEdgeStyle;rounded=0;orthogonalLoop=1;jettySize=auto;html=1;exitX=1;exitY=0.5;exitDx=0;exitDy=0;entryX=0;entryY=0.75;entryDx=0;entryDy=0;fontSize=18;endArrow=none;endFill=0;" parent="1" source="-C6V215suekzGPEqEguK-16" target="-C6V215suekzGPEqEguK-2" edge="1">
          <mxGeometry relative="1" as="geometry" />
        </mxCell>
        <mxCell id="-C6V215suekzGPEqEguK-16" value="&lt;font style=&quot;font-size: 18px&quot;&gt;São responsáveis&lt;br&gt;por&lt;br&gt;&lt;/font&gt;" style="rhombus;whiteSpace=wrap;html=1;fontSize=20;" parent="1" vertex="1">
          <mxGeometry x="322.5" y="260" width="230" height="110" as="geometry" />
        </mxCell>
        <mxCell id="-C6V215suekzGPEqEguK-19" value="&lt;font style=&quot;font-size: 15px;&quot;&gt;CRM&lt;/font&gt;" style="text;html=1;strokeColor=none;fillColor=none;align=center;verticalAlign=middle;whiteSpace=wrap;rounded=0;fontSize=18;labelBackgroundColor=#FFFFFF;" parent="1" vertex="1">
          <mxGeometry x="20" y="30" width="60" height="30" as="geometry" />
        </mxCell>
        <mxCell id="-C6V215suekzGPEqEguK-20" value="&lt;font style=&quot;font-size: 15px&quot;&gt;Nome&lt;/font&gt;" style="text;html=1;strokeColor=none;fillColor=none;align=center;verticalAlign=middle;whiteSpace=wrap;rounded=0;fontSize=18;" parent="1" vertex="1">
          <mxGeometry x="80" y="30" width="60" height="30" as="geometry" />
        </mxCell>
        <mxCell id="-C6V215suekzGPEqEguK-21" value="&lt;font style=&quot;font-size: 15px&quot;&gt;Salário&lt;/font&gt;" style="text;html=1;strokeColor=none;fillColor=none;align=center;verticalAlign=middle;whiteSpace=wrap;rounded=0;fontSize=18;" parent="1" vertex="1">
          <mxGeometry x="140" y="30" width="60" height="30" as="geometry" />
        </mxCell>
        <mxCell id="-C6V215suekzGPEqEguK-27" value="&lt;font style=&quot;font-size: 15px;&quot;&gt;CPF&lt;/font&gt;" style="text;html=1;strokeColor=none;fillColor=none;align=center;verticalAlign=middle;whiteSpace=wrap;rounded=0;fontSize=18;labelBackgroundColor=default;" parent="1" vertex="1">
          <mxGeometry x="490" y="30" width="60" height="30" as="geometry" />
        </mxCell>
        <mxCell id="-C6V215suekzGPEqEguK-28" value="&lt;font style=&quot;font-size: 15px&quot;&gt;Nome&lt;/font&gt;" style="text;html=1;strokeColor=none;fillColor=none;align=center;verticalAlign=middle;whiteSpace=wrap;rounded=0;fontSize=18;" parent="1" vertex="1">
          <mxGeometry x="540" y="30" width="60" height="30" as="geometry" />
        </mxCell>
        <mxCell id="-C6V215suekzGPEqEguK-29" value="&lt;font style=&quot;font-size: 15px&quot;&gt;Endereço&lt;/font&gt;" style="text;html=1;strokeColor=none;fillColor=none;align=center;verticalAlign=middle;whiteSpace=wrap;rounded=0;fontSize=18;" parent="1" vertex="1">
          <mxGeometry x="640" y="30" width="60" height="30" as="geometry" />
        </mxCell>
        <mxCell id="-C6V215suekzGPEqEguK-30" value="&lt;font style=&quot;font-size: 15px&quot;&gt;RG&lt;/font&gt;" style="text;html=1;strokeColor=none;fillColor=none;align=center;verticalAlign=middle;whiteSpace=wrap;rounded=0;fontSize=18;" parent="1" vertex="1">
          <mxGeometry x="580" y="30" width="60" height="30" as="geometry" />
        </mxCell>
        <mxCell id="-C6V215suekzGPEqEguK-31" value="&lt;font style=&quot;font-size: 15px&quot;&gt;Telefone&lt;/font&gt;" style="text;html=1;strokeColor=none;fillColor=none;align=center;verticalAlign=middle;whiteSpace=wrap;rounded=0;fontSize=18;" parent="1" vertex="1">
          <mxGeometry x="705" y="30" width="60" height="30" as="geometry" />
        </mxCell>
        <mxCell id="-C6V215suekzGPEqEguK-32" value="&lt;font style=&quot;font-size: 15px&quot;&gt;Data de Nascimento&lt;/font&gt;" style="text;html=1;strokeColor=none;fillColor=none;align=center;verticalAlign=middle;whiteSpace=wrap;rounded=0;fontSize=18;" parent="1" vertex="1">
          <mxGeometry x="780" y="10" width="60" height="50" as="geometry" />
        </mxCell>
        <mxCell id="-C6V215suekzGPEqEguK-41" value="&lt;font style=&quot;font-size: 15px&quot;&gt;Nome&lt;/font&gt;" style="text;html=1;strokeColor=none;fillColor=none;align=center;verticalAlign=middle;whiteSpace=wrap;rounded=0;fontSize=18;" parent="1" vertex="1">
          <mxGeometry x="290" y="650" width="45" height="30" as="geometry" />
        </mxCell>
        <mxCell id="-C6V215suekzGPEqEguK-45" value="&lt;font style=&quot;font-size: 15px;&quot;&gt;ID&lt;/font&gt;" style="text;html=1;strokeColor=none;fillColor=none;align=center;verticalAlign=middle;whiteSpace=wrap;rounded=0;fontSize=18;fontColor=#000000;labelBackgroundColor=default;" parent="1" vertex="1">
          <mxGeometry x="290" y="590" width="35" height="30" as="geometry" />
        </mxCell>
        <mxCell id="-C6V215suekzGPEqEguK-47" value="&lt;font style=&quot;font-size: 15px;&quot;&gt;Número&lt;/font&gt;" style="text;html=1;strokeColor=none;fillColor=none;align=center;verticalAlign=middle;whiteSpace=wrap;rounded=0;fontSize=18;labelBackgroundColor=default;" parent="1" vertex="1">
          <mxGeometry x="473.75" y="590" width="60" height="30" as="geometry" />
        </mxCell>
        <mxCell id="-C6V215suekzGPEqEguK-50" value="&lt;font style=&quot;font-size: 15px&quot;&gt;Andar&lt;/font&gt;" style="text;html=1;strokeColor=none;fillColor=none;align=center;verticalAlign=middle;whiteSpace=wrap;rounded=0;fontSize=18;" parent="1" vertex="1">
          <mxGeometry x="480" y="650" width="60" height="30" as="geometry" />
        </mxCell>
        <mxCell id="-C6V215suekzGPEqEguK-55" value="&lt;font style=&quot;font-size: 15px&quot;&gt;Horário de visita diário&lt;/font&gt;" style="text;html=1;strokeColor=none;fillColor=none;align=center;verticalAlign=middle;whiteSpace=wrap;rounded=0;fontSize=18;" parent="1" vertex="1">
          <mxGeometry x="387.5" y="460" width="102.5" height="40" as="geometry" />
        </mxCell>
        <mxCell id="-C6V215suekzGPEqEguK-57" value="1...N" style="text;html=1;strokeColor=none;fillColor=none;align=center;verticalAlign=middle;whiteSpace=wrap;rounded=0;labelBackgroundColor=#FFFFFF;fontSize=15;" parent="1" vertex="1">
          <mxGeometry x="60" y="340" width="30" height="30" as="geometry" />
        </mxCell>
        <mxCell id="-C6V215suekzGPEqEguK-58" value="1...N" style="text;html=1;strokeColor=none;fillColor=none;align=center;verticalAlign=middle;whiteSpace=wrap;rounded=0;labelBackgroundColor=#FFFFFF;fontSize=15;" parent="1" vertex="1">
          <mxGeometry x="60" y="450" width="30" height="30" as="geometry" />
        </mxCell>
        <mxCell id="-C6V215suekzGPEqEguK-59" value="1...N" style="text;html=1;strokeColor=none;fillColor=none;align=center;verticalAlign=middle;whiteSpace=wrap;rounded=0;labelBackgroundColor=#FFFFFF;fontSize=15;" parent="1" vertex="1">
          <mxGeometry x="488.75" y="215" width="30" height="30" as="geometry" />
        </mxCell>
        <mxCell id="-C6V215suekzGPEqEguK-60" value="1...N" style="text;html=1;strokeColor=none;fillColor=none;align=center;verticalAlign=middle;whiteSpace=wrap;rounded=0;labelBackgroundColor=#FFFFFF;fontSize=15;" parent="1" vertex="1">
          <mxGeometry x="355" y="215" width="30" height="30" as="geometry" />
        </mxCell>
        <mxCell id="-C6V215suekzGPEqEguK-61" value="1...1&lt;span style=&quot;color: rgba(0 , 0 , 0 , 0) ; font-family: monospace ; font-size: 0px ; background-color: rgb(248 , 249 , 250)&quot;&gt;%3CmxGraphModel%3E%3Croot%3E%3CmxCell%20id%3D%220%22%2F%3E%3CmxCell%20id%3D%221%22%20parent%3D%220%22%2F%3E%3CmxCell%20id%3D%222%22%20value%3D%22N%22%20style%3D%22text%3Bhtml%3D1%3BstrokeColor%3Dnone%3BfillColor%3Dnone%3Balign%3Dcenter%3BverticalAlign%3Dmiddle%3BwhiteSpace%3Dwrap%3Brounded%3D0%3BlabelBackgroundColor%3D%23FFFFFF%3BfontSize%3D15%3B%22%20vertex%3D%221%22%20parent%3D%221%22%3E%3CmxGeometry%20x%3D%22130%22%20y%3D%22340%22%20width%3D%2230%22%20height%3D%2230%22%20as%3D%22geometry%22%2F%3E%3C%2FmxCell%3E%3C%2Froot%3E%3C%2FmxGraphModel%3E&lt;/span&gt;" style="text;html=1;strokeColor=none;fillColor=none;align=center;verticalAlign=middle;whiteSpace=wrap;rounded=0;labelBackgroundColor=#FFFFFF;fontSize=15;" parent="1" vertex="1">
          <mxGeometry x="550" y="320" width="30" height="30" as="geometry" />
        </mxCell>
        <mxCell id="-C6V215suekzGPEqEguK-62" value="1...1" style="text;html=1;strokeColor=none;fillColor=none;align=center;verticalAlign=middle;whiteSpace=wrap;rounded=0;labelBackgroundColor=#FFFFFF;fontSize=15;" parent="1" vertex="1">
          <mxGeometry x="292.5" y="320" width="30" height="30" as="geometry" />
        </mxCell>
        <mxCell id="-C6V215suekzGPEqEguK-63" value="1...1" style="text;html=1;strokeColor=none;fillColor=none;align=center;verticalAlign=middle;whiteSpace=wrap;rounded=0;labelBackgroundColor=#FFFFFF;fontSize=15;" parent="1" vertex="1">
          <mxGeometry x="705" y="450" width="30" height="30" as="geometry" />
        </mxCell>
        <mxCell id="-C6V215suekzGPEqEguK-64" value="0...1" style="text;html=1;strokeColor=none;fillColor=none;align=center;verticalAlign=middle;whiteSpace=wrap;rounded=0;labelBackgroundColor=#FFFFFF;fontSize=15;" parent="1" vertex="1">
          <mxGeometry x="700" y="340" width="30" height="30" as="geometry" />
        </mxCell>
        <mxCell id="PIR7cMQfShtjN9JuO-gu-2" style="edgeStyle=orthogonalEdgeStyle;rounded=0;orthogonalLoop=1;jettySize=auto;html=1;exitX=0.5;exitY=0;exitDx=0;exitDy=0;entryX=0.75;entryY=1;entryDx=0;entryDy=0;endArrow=none;endFill=0;" edge="1" parent="1" source="PIR7cMQfShtjN9JuO-gu-1" target="-C6V215suekzGPEqEguK-1">
          <mxGeometry relative="1" as="geometry" />
        </mxCell>
        <mxCell id="PIR7cMQfShtjN9JuO-gu-3" style="edgeStyle=orthogonalEdgeStyle;rounded=0;orthogonalLoop=1;jettySize=auto;html=1;exitX=0.5;exitY=1;exitDx=0;exitDy=0;entryX=0.685;entryY=0;entryDx=0;entryDy=0;entryPerimeter=0;endArrow=none;endFill=0;" edge="1" parent="1" source="PIR7cMQfShtjN9JuO-gu-1" target="-C6V215suekzGPEqEguK-3">
          <mxGeometry relative="1" as="geometry" />
        </mxCell>
        <mxCell id="PIR7cMQfShtjN9JuO-gu-1" value="Exercem" style="rhombus;whiteSpace=wrap;html=1;fontSize=20;" vertex="1" parent="1">
          <mxGeometry x="140" y="370" width="110" height="80" as="geometry" />
        </mxCell>
        <mxCell id="PIR7cMQfShtjN9JuO-gu-4" value="1...N" style="text;html=1;strokeColor=none;fillColor=none;align=center;verticalAlign=middle;whiteSpace=wrap;rounded=0;labelBackgroundColor=#FFFFFF;fontSize=15;" vertex="1" parent="1">
          <mxGeometry x="160" y="340" width="30" height="30" as="geometry" />
        </mxCell>
        <mxCell id="PIR7cMQfShtjN9JuO-gu-5" value="1...1" style="text;html=1;strokeColor=none;fillColor=none;align=center;verticalAlign=middle;whiteSpace=wrap;rounded=0;labelBackgroundColor=#FFFFFF;fontSize=15;" vertex="1" parent="1">
          <mxGeometry x="160" y="460" width="30" height="30" as="geometry" />
        </mxCell>
        <mxCell id="PIR7cMQfShtjN9JuO-gu-9" style="edgeStyle=orthogonalEdgeStyle;rounded=0;orthogonalLoop=1;jettySize=auto;html=1;exitX=0.5;exitY=1;exitDx=0;exitDy=0;entryX=0.062;entryY=-0.019;entryDx=0;entryDy=0;entryPerimeter=0;fontColor=#000000;endArrow=none;endFill=0;" edge="1" parent="1" source="PIR7cMQfShtjN9JuO-gu-6" target="-C6V215suekzGPEqEguK-1">
          <mxGeometry relative="1" as="geometry" />
        </mxCell>
        <mxCell id="PIR7cMQfShtjN9JuO-gu-6" value="" style="ellipse;whiteSpace=wrap;html=1;aspect=fixed;labelBackgroundColor=#000000;fontColor=#000000;fillColor=#000000;" vertex="1" parent="1">
          <mxGeometry x="32.5" y="70" width="35" height="35" as="geometry" />
        </mxCell>
        <mxCell id="PIR7cMQfShtjN9JuO-gu-10" style="edgeStyle=orthogonalEdgeStyle;rounded=0;orthogonalLoop=1;jettySize=auto;html=1;exitX=0.5;exitY=1;exitDx=0;exitDy=0;entryX=0.408;entryY=-0.019;entryDx=0;entryDy=0;entryPerimeter=0;fontColor=#000000;endArrow=none;endFill=0;" edge="1" parent="1" source="PIR7cMQfShtjN9JuO-gu-7" target="-C6V215suekzGPEqEguK-1">
          <mxGeometry relative="1" as="geometry" />
        </mxCell>
        <mxCell id="PIR7cMQfShtjN9JuO-gu-7" value="" style="ellipse;whiteSpace=wrap;html=1;aspect=fixed;labelBackgroundColor=#FFFFFF;" vertex="1" parent="1">
          <mxGeometry x="90" y="70" width="35" height="35" as="geometry" />
        </mxCell>
        <mxCell id="PIR7cMQfShtjN9JuO-gu-11" style="edgeStyle=orthogonalEdgeStyle;rounded=0;orthogonalLoop=1;jettySize=auto;html=1;exitX=0.5;exitY=1;exitDx=0;exitDy=0;entryX=0.75;entryY=0;entryDx=0;entryDy=0;fontColor=#000000;endArrow=none;endFill=0;" edge="1" parent="1" source="PIR7cMQfShtjN9JuO-gu-8" target="-C6V215suekzGPEqEguK-1">
          <mxGeometry relative="1" as="geometry" />
        </mxCell>
        <mxCell id="PIR7cMQfShtjN9JuO-gu-8" value="" style="ellipse;whiteSpace=wrap;html=1;aspect=fixed;labelBackgroundColor=#FFFFFF;" vertex="1" parent="1">
          <mxGeometry x="152.5" y="70" width="35" height="35" as="geometry" />
        </mxCell>
        <mxCell id="PIR7cMQfShtjN9JuO-gu-14" style="edgeStyle=orthogonalEdgeStyle;rounded=0;orthogonalLoop=1;jettySize=auto;html=1;exitX=0;exitY=0.5;exitDx=0;exitDy=0;entryX=1.01;entryY=0.316;entryDx=0;entryDy=0;entryPerimeter=0;fontColor=#000000;endArrow=none;endFill=0;" edge="1" parent="1" source="PIR7cMQfShtjN9JuO-gu-12" target="-C6V215suekzGPEqEguK-3">
          <mxGeometry relative="1" as="geometry" />
        </mxCell>
        <mxCell id="PIR7cMQfShtjN9JuO-gu-12" value="" style="ellipse;whiteSpace=wrap;html=1;aspect=fixed;labelBackgroundColor=#000000;fillColor=#000000;" vertex="1" parent="1">
          <mxGeometry x="250" y="585" width="35" height="35" as="geometry" />
        </mxCell>
        <mxCell id="PIR7cMQfShtjN9JuO-gu-15" style="edgeStyle=orthogonalEdgeStyle;rounded=0;orthogonalLoop=1;jettySize=auto;html=1;exitX=0;exitY=0.5;exitDx=0;exitDy=0;entryX=1.003;entryY=0.823;entryDx=0;entryDy=0;entryPerimeter=0;fontColor=#000000;endArrow=none;endFill=0;" edge="1" parent="1" source="PIR7cMQfShtjN9JuO-gu-13" target="-C6V215suekzGPEqEguK-3">
          <mxGeometry relative="1" as="geometry" />
        </mxCell>
        <mxCell id="PIR7cMQfShtjN9JuO-gu-13" value="" style="ellipse;whiteSpace=wrap;html=1;aspect=fixed;labelBackgroundColor=#FFFFFF;" vertex="1" parent="1">
          <mxGeometry x="250" y="645" width="35" height="35" as="geometry" />
        </mxCell>
        <mxCell id="PIR7cMQfShtjN9JuO-gu-17" style="edgeStyle=orthogonalEdgeStyle;rounded=0;orthogonalLoop=1;jettySize=auto;html=1;exitX=0.5;exitY=0;exitDx=0;exitDy=0;entryX=0.5;entryY=1;entryDx=0;entryDy=0;fontColor=#000000;endArrow=none;endFill=0;" edge="1" parent="1" source="PIR7cMQfShtjN9JuO-gu-16" target="-C6V215suekzGPEqEguK-16">
          <mxGeometry relative="1" as="geometry" />
        </mxCell>
        <mxCell id="PIR7cMQfShtjN9JuO-gu-16" value="" style="ellipse;whiteSpace=wrap;html=1;aspect=fixed;labelBackgroundColor=#FFFFFF;" vertex="1" parent="1">
          <mxGeometry x="420" y="410" width="35" height="35" as="geometry" />
        </mxCell>
        <mxCell id="PIR7cMQfShtjN9JuO-gu-24" style="edgeStyle=orthogonalEdgeStyle;rounded=0;orthogonalLoop=1;jettySize=auto;html=1;exitX=0.5;exitY=1;exitDx=0;exitDy=0;entryX=-0.003;entryY=0.09;entryDx=0;entryDy=0;entryPerimeter=0;fontColor=#000000;endArrow=none;endFill=0;" edge="1" parent="1" source="PIR7cMQfShtjN9JuO-gu-18" target="-C6V215suekzGPEqEguK-2">
          <mxGeometry relative="1" as="geometry">
            <Array as="points">
              <mxPoint x="520" y="170" />
              <mxPoint x="650" y="170" />
            </Array>
          </mxGeometry>
        </mxCell>
        <mxCell id="PIR7cMQfShtjN9JuO-gu-18" value="" style="ellipse;whiteSpace=wrap;html=1;aspect=fixed;labelBackgroundColor=#FFFFFF;fillColor=#000000;" vertex="1" parent="1">
          <mxGeometry x="502.5" y="70" width="35" height="35" as="geometry" />
        </mxCell>
        <mxCell id="PIR7cMQfShtjN9JuO-gu-25" style="edgeStyle=orthogonalEdgeStyle;rounded=0;orthogonalLoop=1;jettySize=auto;html=1;exitX=0.5;exitY=1;exitDx=0;exitDy=0;fontColor=#000000;endArrow=none;endFill=0;" edge="1" parent="1" source="PIR7cMQfShtjN9JuO-gu-19">
          <mxGeometry relative="1" as="geometry">
            <mxPoint x="650" y="150" as="targetPoint" />
            <Array as="points">
              <mxPoint x="568" y="150" />
            </Array>
          </mxGeometry>
        </mxCell>
        <mxCell id="PIR7cMQfShtjN9JuO-gu-19" value="" style="ellipse;whiteSpace=wrap;html=1;aspect=fixed;labelBackgroundColor=#FFFFFF;" vertex="1" parent="1">
          <mxGeometry x="550" y="70" width="35" height="35" as="geometry" />
        </mxCell>
        <mxCell id="PIR7cMQfShtjN9JuO-gu-26" style="edgeStyle=orthogonalEdgeStyle;rounded=0;orthogonalLoop=1;jettySize=auto;html=1;exitX=0.5;exitY=1;exitDx=0;exitDy=0;entryX=0.066;entryY=0.009;entryDx=0;entryDy=0;entryPerimeter=0;fontColor=#000000;endArrow=none;endFill=0;" edge="1" parent="1" source="PIR7cMQfShtjN9JuO-gu-20" target="-C6V215suekzGPEqEguK-2">
          <mxGeometry relative="1" as="geometry">
            <Array as="points">
              <mxPoint x="610" y="125" />
              <mxPoint x="661" y="125" />
            </Array>
          </mxGeometry>
        </mxCell>
        <mxCell id="PIR7cMQfShtjN9JuO-gu-20" value="" style="ellipse;whiteSpace=wrap;html=1;aspect=fixed;labelBackgroundColor=#FFFFFF;" vertex="1" parent="1">
          <mxGeometry x="592.5" y="70" width="35" height="35" as="geometry" />
        </mxCell>
        <mxCell id="PIR7cMQfShtjN9JuO-gu-27" style="edgeStyle=orthogonalEdgeStyle;rounded=0;orthogonalLoop=1;jettySize=auto;html=1;exitX=0.5;exitY=1;exitDx=0;exitDy=0;entryX=0.25;entryY=0;entryDx=0;entryDy=0;fontColor=#000000;endArrow=none;endFill=0;" edge="1" parent="1" source="PIR7cMQfShtjN9JuO-gu-21" target="-C6V215suekzGPEqEguK-2">
          <mxGeometry relative="1" as="geometry" />
        </mxCell>
        <mxCell id="PIR7cMQfShtjN9JuO-gu-21" value="" style="ellipse;whiteSpace=wrap;html=1;aspect=fixed;labelBackgroundColor=#FFFFFF;" vertex="1" parent="1">
          <mxGeometry x="650" y="70" width="35" height="35" as="geometry" />
        </mxCell>
        <mxCell id="PIR7cMQfShtjN9JuO-gu-28" style="edgeStyle=orthogonalEdgeStyle;rounded=0;orthogonalLoop=1;jettySize=auto;html=1;exitX=0.5;exitY=1;exitDx=0;exitDy=0;entryX=0.5;entryY=0;entryDx=0;entryDy=0;fontColor=#000000;endArrow=none;endFill=0;" edge="1" parent="1" source="PIR7cMQfShtjN9JuO-gu-22" target="-C6V215suekzGPEqEguK-2">
          <mxGeometry relative="1" as="geometry" />
        </mxCell>
        <mxCell id="PIR7cMQfShtjN9JuO-gu-22" value="" style="ellipse;whiteSpace=wrap;html=1;aspect=fixed;labelBackgroundColor=#FFFFFF;" vertex="1" parent="1">
          <mxGeometry x="717.5" y="70" width="35" height="35" as="geometry" />
        </mxCell>
        <mxCell id="PIR7cMQfShtjN9JuO-gu-29" style="edgeStyle=orthogonalEdgeStyle;rounded=0;orthogonalLoop=1;jettySize=auto;html=1;exitX=0.5;exitY=1;exitDx=0;exitDy=0;entryX=0.938;entryY=0.009;entryDx=0;entryDy=0;entryPerimeter=0;fontColor=#000000;endArrow=none;endFill=0;" edge="1" parent="1" source="PIR7cMQfShtjN9JuO-gu-23" target="-C6V215suekzGPEqEguK-2">
          <mxGeometry relative="1" as="geometry" />
        </mxCell>
        <mxCell id="PIR7cMQfShtjN9JuO-gu-23" value="" style="ellipse;whiteSpace=wrap;html=1;aspect=fixed;labelBackgroundColor=#FFFFFF;" vertex="1" parent="1">
          <mxGeometry x="792.5" y="70" width="35" height="35" as="geometry" />
        </mxCell>
        <mxCell id="PIR7cMQfShtjN9JuO-gu-32" style="edgeStyle=orthogonalEdgeStyle;rounded=0;orthogonalLoop=1;jettySize=auto;html=1;exitX=1;exitY=0.5;exitDx=0;exitDy=0;entryX=-0.003;entryY=0.352;entryDx=0;entryDy=0;entryPerimeter=0;fontColor=#000000;endArrow=none;endFill=0;" edge="1" parent="1" source="PIR7cMQfShtjN9JuO-gu-30" target="-C6V215suekzGPEqEguK-4">
          <mxGeometry relative="1" as="geometry" />
        </mxCell>
        <mxCell id="PIR7cMQfShtjN9JuO-gu-30" value="" style="ellipse;whiteSpace=wrap;html=1;aspect=fixed;labelBackgroundColor=#FFFFFF;fillColor=#000000;" vertex="1" parent="1">
          <mxGeometry x="540" y="587.5" width="35" height="35" as="geometry" />
        </mxCell>
        <mxCell id="PIR7cMQfShtjN9JuO-gu-34" style="edgeStyle=orthogonalEdgeStyle;rounded=0;orthogonalLoop=1;jettySize=auto;html=1;exitX=1;exitY=0.5;exitDx=0;exitDy=0;entryX=0;entryY=0.692;entryDx=0;entryDy=0;entryPerimeter=0;fontColor=#000000;endArrow=none;endFill=0;" edge="1" parent="1" source="PIR7cMQfShtjN9JuO-gu-31" target="-C6V215suekzGPEqEguK-4">
          <mxGeometry relative="1" as="geometry" />
        </mxCell>
        <mxCell id="PIR7cMQfShtjN9JuO-gu-31" value="" style="ellipse;whiteSpace=wrap;html=1;aspect=fixed;labelBackgroundColor=#FFFFFF;" vertex="1" parent="1">
          <mxGeometry x="540" y="647.5" width="35" height="35" as="geometry" />
        </mxCell>
      </root>
    </mxGraphModel>
  </diagram>
</mxfile>
